<svg xmlns="http://www.w3.org/2000/svg" width="76" height="48" viewBox="0 0 76 48">
    <g fill="none" fill-rule="evenodd">
        <g fill="#9DD745">
            <path d="M35.466 7.53c0 3.653-2.45 5.588-5.029 6.533-.043 0-.172.172 0 .473 1.376 2.536 3.34 8.86 5.877 11.611 1.332 1.504 3.235 1.24 5.17 1.455.386.043.644.172.644.43 0 .172-.172.344-.516.43-.386.086-1.074.13-1.762.13-2.235 0-4.556-.259-6.834-3.053-1.074-1.332-3.18-4.34-5.416-8.252-1.031-1.762-1.805-2.278-3.954-2.278-.3 0-.688.086-.817.129-.129.043-.258.344-.258.516 0 3.825 0 7.049.13 8.854.171 1.633.558 2.235 2.492 2.75.688.173.903.43.903.645 0 .172-.43.387-1.032.387-.86 0-3.137-.129-4.556-.129-1.676 0-3.696.13-4.212.13-.688 0-1.117-.173-1.117-.43 0-.259.343-.473.945-.602 1.977-.387 2.407-.817 2.493-2.192.086-1.419.215-4.213.215-10.746 0-8.811 0-9.67-.043-10.616-.129-1.204-.602-1.72-2.493-2.15-.774-.171-1.031-.3-1.031-.601 0-.215.386-.387 1.031-.387 1.118 0 1.934.043 2.75.043 1.075 0 4.428-.215 6.491-.215 2.923 0 5.072.3 6.877 1.504 2.106 1.376 3.052 3.74 3.052 5.631zm-4.083.387c0-3.998-2.88-6.447-6.19-6.447-.644 0-1.16.042-1.719.257-.3.086-.516.645-.602.989-.3 2.321-.344 7.178-.3 10.574 0 .3.343.601.644.687.473.13 1.16.086 2.235.086.989 0 2.106-.215 2.88-.516 1.891-.86 3.052-2.493 3.052-5.63z"/>
            <path d="M54.964 34.893c0 4.341-3.051 6.533-6.619 7.565-1.461.601-3.009.773-4.427.773-.989 0-3.095-.043-5.158-.086-2.278 0-3.481.13-4.47.13-.602 0-1.032-.13-1.032-.473 0-.258.645-.473 1.032-.56 1.805-.429 2.235-.902 2.364-3.395.043-1.29.129-3.696.129-10.616 0-5.846.043-7.694-.129-9.155-.215-1.935-.86-2.321-2.75-2.493-.56-.043-1.118-.172-1.118-.473s.43-.473.988-.473l2.751-.043c1.676-.043 4.427-.344 6.877-.344 2.794 0 4.685.43 6.232 1.29 2.322 1.332 3.052 3.567 3.052 5.2 0 2.665-1.375 4.47-3.696 5.545-.172.086 0 .258.086.3 3.696 1.204 5.888 3.912 5.888 7.308zm-6.146-13.067c0-3.997-3.052-5.673-6.233-5.673-.343 0-.945.086-1.375.3-.129.087-.516.387-.516 1.118 0 1.462-.172 8.468-.086 9.413 0 .086.043.559.903.559 1.332 0 2.794-.172 3.954-.645 2.278-.945 3.353-2.75 3.353-5.072zm1.977 13.626c0-4.299-3.653-6.877-8.167-6.877-.945 0-1.504.085-1.805.214-.172.043-.258.344-.258.645-.043 2.493-.043 6.834.086 9.585.043.688.258 1.419.731 1.762 1.032.688 2.364 1.376 3.481 1.376 3.267 0 5.932-2.88 5.932-6.705z"/>
        </g>
    </g>
</svg>
