<?xml version="1.0" standalone="no"?>
<!DOCTYPE svg PUBLIC "-//W3C//DTD SVG 20010904//EN"
 "http://www.w3.org/TR/2001/REC-SVG-20010904/DTD/svg10.dtd">
<svg version="1.0" xmlns="http://www.w3.org/2000/svg"
 width="1216.000000pt" height="1216.000000pt" viewBox="0 0 1216.000000 1216.000000"
 preserveAspectRatio="xMidYMid meet">
<metadata>
Created by potrace 1.11, written by Peter Selinger 2001-2013
</metadata>
<g transform="translate(0.000000,1216.000000) scale(0.100000,-0.100000)"
fill="#000000" stroke="none">
<path d="M3810 9853 c-47 -1 -200 -7 -340 -13 -140 -6 -405 -11 -588 -11 -202
1 -349 -3 -373 -9 -72 -20 -89 -65 -37 -103 14 -11 84 -35 155 -54 272 -72
346 -135 373 -320 6 -42 10 -518 10 -1228 0 -1481 -17 -2207 -55 -2333 -32
-107 -109 -157 -320 -208 -159 -39 -210 -68 -203 -115 2 -14 17 -31 38 -43 33
-20 46 -21 275 -16 132 3 371 5 530 5 160 0 407 -2 550 -5 240 -5 264 -3 302
14 46 21 58 38 43 66 -18 33 -63 57 -179 94 -187 60 -262 112 -307 214 -50
111 -55 176 -64 922 -9 691 -7 753 23 779 40 33 294 30 417 -5 101 -29 179
-85 255 -184 24 -31 124 -191 222 -356 187 -313 327 -530 496 -774 223 -320
359 -477 512 -593 73 -54 219 -134 303 -164 l32 -11 0 -519 c0 -572 -14 -1179
-30 -1318 -29 -250 -100 -332 -340 -395 -92 -24 -162 -54 -181 -76 -19 -24 -2
-64 36 -79 40 -17 -39 -16 1030 -12 1043 4 991 -1 1395 139 306 105 502 214
660 364 177 169 280 359 325 599 22 118 23 332 1 448 -72 382 -321 684 -717
871 -63 29 -137 61 -166 70 -28 9 -54 24 -57 33 -4 9 -5 17 -4 18 2 1 38 21
82 45 104 57 223 147 286 218 265 295 306 755 99 1117 -51 91 -176 227 -263
290 -34 23 -97 61 -141 83 -339 173 -723 212 -1565 158 -223 -14 -535 -29
-695 -32 -310 -8 -346 -13 -379 -58 l-20 -26 25 -26 c26 -26 66 -35 264 -64
202 -30 280 -98 319 -280 28 -132 36 -304 36 -803 0 -568 12 -531 -122 -363
-185 232 -333 513 -585 1111 -146 347 -229 537 -275 628 -21 44 -38 88 -36 99
2 15 31 32 111 68 427 190 661 494 697 902 17 195 -18 385 -105 565 -113 237
-277 400 -519 518 -279 136 -605 178 -1236 158z m401 -188 c200 -35 362 -117
507 -259 235 -229 339 -571 288 -954 -45 -339 -191 -562 -448 -682 -150 -70
-393 -106 -672 -98 -167 4 -209 16 -250 72 -21 27 -21 37 -19 539 3 714 23
1143 61 1250 27 78 56 104 142 127 93 24 272 26 391 5z m2813 -2350 c124 -19
270 -68 373 -126 101 -57 235 -188 292 -286 116 -201 150 -488 86 -738 -22
-88 -96 -232 -152 -295 -199 -228 -463 -333 -873 -347 -142 -5 -170 -3 -198
11 -17 9 -36 25 -42 35 -11 22 -12 640 -1 1241 l6 365 25 44 c43 77 126 109
290 110 52 1 140 -6 194 -14z m116 -1999 c494 -94 844 -387 950 -796 27 -103
38 -327 22 -446 -52 -380 -294 -710 -612 -833 -282 -109 -524 -71 -838 132
-129 83 -149 147 -162 515 -13 361 -13 1327 1 1375 8 31 18 42 47 54 78 33
417 32 592 -1z"/>
</g>
</svg>
