<svg xmlns="http://www.w3.org/2000/svg" width="34" height="40" viewBox="0 0 34 40">
    <path fill="#9DD745" fill-rule="nonzero" d="M28.604 1.863C25.474.662 21.33 0 16.934 0 12.536 0 8.391.662 5.262 1.863 1.915 3.148.07 4.94.07 6.908a10.89 10.89 0 0 0 .156 1.831c.496 2.91 2.17 5.592 4.838 7.692a17.473 17.473 0 0 0 4.775 2.64c.44 3.149 2.176 5.696 4.461 6.82.705 4.639.581 8.385.134 10.073a.72.72 0 0 0 .542.878.778.778 0 0 0 .185.023c.335 0 .64-.218.727-.544.69-2.604.378-7.03 0-9.901a5.803 5.803 0 0 0 2.087.001c-.377 2.871-.689 7.3 0 9.9a.746.746 0 0 0 .727.544.783.783 0 0 0 .186-.023.72.72 0 0 0 .541-.878 9.8 9.8 0 0 1-.241-1.394c2.684.36 4.154 1.294 4.154 1.881 0 .3-.425.813-1.625 1.273-1.266.486-2.965.754-4.785.754-1.82 0-3.52-.268-4.785-.754-1.2-.46-1.625-.973-1.625-1.273 0-.49.997-1.216 2.902-1.655a.721.721 0 0 0 .555-.871.752.752 0 0 0-.905-.534c-2.576.594-4.053 1.71-4.053 3.06 0 1.05.913 1.979 2.57 2.615 1.438.552 3.335.856 5.34.856 2.006 0 3.903-.304 5.342-.856 1.657-.636 2.57-1.565 2.57-2.615 0-1.328-1.4-2.28-3.272-2.847-.77-.233-1.622-.4-2.488-.5-.07-1.899.051-4.388.479-7.21 1.74-.852 3.182-2.533 3.962-4.747a.716.716 0 0 0-.47-.916.757.757 0 0 0-.952.453c-.938 2.665-2.967 4.388-5.17 4.388-2.567 0-4.79-2.292-5.48-5.486 1.74.473 3.587.72 5.48.72 4.476 0 8.691-1.376 11.868-3.875 3.22-2.534 4.994-5.916 4.994-9.523 0-1.968-1.843-3.76-5.19-5.045zm2.558 9.548c-2.418 2.093-8.103 3.494-14.228 3.494-2.527 0-5.038-.235-7.26-.677a.75.75 0 0 0-.887.56.723.723 0 0 0 .583.854c2.354.469 4.899.707 7.564.707 4.614 0 8.923-.748 12.02-2.008-2.816 2.753-7.158 4.521-12.02 4.521-4.859 0-9.197-1.764-12.014-4.512.62.252 1.29.485 2.005.695a.778.778 0 0 0 .219.032c.321 0 .619-.2.717-.511a.718.718 0 0 0-.498-.902c-2.042-.6-3.648-1.377-4.658-2.25-.179-.342-.338-.69-.476-1.046.802.584 1.818 1.118 3.033 1.584 3.13 1.202 7.275 1.863 11.671 1.863 4.397 0 8.542-.661 11.671-1.863 1.216-.466 2.231-1 3.034-1.584-.138.355-.297.703-.476 1.043zm-7.321-6.824c3.953.74 6.893 2.076 7.99 3.585-.646.886-1.948 1.735-3.783 2.44-2.956 1.134-6.904 1.76-11.115 1.76-4.21 0-8.158-.626-11.114-1.76-1.832-.704-3.133-1.552-3.78-2.436 1.597-2.163 7.196-4.198 14.895-4.198 1.54 0 3.061.085 4.522.252.41.047.785-.236.834-.632a.729.729 0 0 0-.657-.802c-1.52-.174-3.1-.262-4.7-.262-4.007 0-7.878.563-10.897 1.584-1.909.646-3.39 1.434-4.401 2.33.312-1.167 1.798-2.328 4.183-3.243 2.957-1.136 6.905-1.76 11.115-1.76 4.211 0 8.158.624 11.115 1.76 2.387.916 3.873 2.077 4.185 3.245-1.619-1.44-4.424-2.592-8.106-3.28-.406-.077-.8.179-.88.57a.724.724 0 0 0 .594.847z"/>
</svg>
