<svg xmlns="http://www.w3.org/2000/svg" width="20" height="40" viewBox="0 0 20 40">
    <g fill="#9DD745" fill-rule="nonzero">
        <path d="M13.99 17.587a.71.71 0 0 0-.677-.335.694.694 0 0 0-.603.501.662.662 0 0 0 .331.742c.27.145.616.101.836-.108a.652.652 0 0 0 .113-.8zM10.715 22.257c-.333-.485-1.144-.328-1.261.24a.664.664 0 0 0 .355.718.727.727 0 0 0 .807-.105.653.653 0 0 0 .1-.853zM7.01 17.355a.725.725 0 0 0-.788-.132.665.665 0 0 0-.39.718c.108.602.975.747 1.29.215a.652.652 0 0 0-.112-.801zM4.683 20.657c-.321-.468-1.093-.344-1.249.192a.66.66 0 0 0 .313.75.727.727 0 0 0 .825-.078.654.654 0 0 0 .111-.864zM7.445 26.688a.657.657 0 0 0-.271.818c.116.263.396.43.694.41a.694.694 0 0 0 .62-.487c.167-.578-.517-1.057-1.043-.741zM13.128 32.57a.716.716 0 0 0-.731-.28.683.683 0 0 0-.538.57.669.669 0 0 0 .425.697c.251.1.55.045.747-.135a.653.653 0 0 0 .097-.851zM15.89 21.709a.728.728 0 0 0-.823.056.654.654 0 0 0-.2.736c.116.307.455.485.788.425.6-.12.76-.901.236-1.217z"/>
        <path d="M17.37 2.107a.715.715 0 0 0-.968.17.65.65 0 0 0 .177.927c1.289.853 1.748 1.655 1.748 2.12 0 1.337-3.618 2.833-8.46 2.833-4.842 0-8.46-1.496-8.46-2.833 0-1.366 3.572-3.99 8.46-3.99 2.234 0 4.002.55 5.092 1.011a.708.708 0 0 0 .918-.34.656.656 0 0 0-.355-.88C13.782.39 11.827 0 9.867 0c-2.44 0-4.863.602-6.824 1.694C1.146 2.75.015 4.107.015 5.324v9.11c0 3.324.538 6.612 1.6 9.776a29.392 29.392 0 0 1 1.532 9.366v3.455c0 .906.782 1.704 2.202 2.247 1.218.466 2.822.722 4.518.722 1.695 0 3.3-.256 4.517-.722 1.42-.543 2.202-1.34 2.202-2.247v-3.455c0-.476.012-.959.035-1.434.018-.368-.278-.68-.662-.697-.381-.02-.71.266-.728.634-.025.496-.037 1-.037 1.497v1.17c0 .556-1.88 1.636-5.327 1.636-3.448 0-5.328-1.08-5.328-1.635v-1.17c0-3.323-.538-6.612-1.6-9.776a29.392 29.392 0 0 1-1.533-9.366v-1.75c.46.324 1.026.619 1.694.876a.72.72 0 0 0 .26.049.697.697 0 0 0 .645-.418.658.658 0 0 0-.385-.868c-1.386-.535-2.214-1.224-2.214-1.843V7.538C3.243 8.817 6.624 9.49 9.866 9.49c3.243 0 6.624-.673 8.46-1.952v2.943c0 1.337-3.617 2.833-8.46 2.833-1.513 0-3.003-.148-4.31-.428a.696.696 0 0 0-.831.506.667.667 0 0 0 .527.796c1.405.3 3.001.46 4.615.46 3.243 0 6.623-.674 8.46-1.954v1.74c0 3.185-.516 6.336-1.533 9.368a30.87 30.87 0 0 0-1.349 5.864.673.673 0 0 0 .606.743.687.687 0 0 0 .776-.58c.245-1.903.68-3.794 1.292-5.62a30.672 30.672 0 0 0 1.6-9.774v-9.11c0-1.057-.856-2.23-2.348-3.218zM4.54 36.617c.24.136.51.263.81.377 1.217.466 2.822.722 4.517.722 1.695 0 3.3-.256 4.517-.722.3-.114.57-.24.81-.377v.414c0 .555-1.88 1.635-5.327 1.635s-5.328-1.08-5.328-1.635v-.414z"/>
    </g>
</svg>
