<svg xmlns="http://www.w3.org/2000/svg" width="50" height="50" viewBox="0 0 50 50" style="fill: rgb(157, 215, 69);">
    <path style="text-indent:0;text-align:start;line-height:normal;text-transform:none;block-progression:tb;-inkscape-font-specification:Bitstream Vera Sans" d="M 13 -0.09375 C 6.330487 -0.09375 0.90625 5.330487 0.90625 12 C 0.90625 18.669513 6.330487 24.09375 13 24.09375 C 15.545544 24.09375 17.92136 23.285853 19.875 21.9375 L 28.03125 31.84375 A 1.0001 1.0001 0 0 0 28 32.0625 L 28 43.15625 C 27.064627 43.333438 25.11224 43.732418 22.71875 44.4375 C 21.182831 44.889956 19.642317 45.427819 18.40625 46.09375 C 17.788217 46.426715 17.251145 46.799476 16.8125 47.25 C 16.373855 47.700524 16 48.292453 16 49 A 1.0001 1.0001 0 0 0 17 50 L 41 50 A 1.0001 1.0001 0 0 0 42 49 C 42 48.292453 41.626145 47.700524 41.1875 47.25 C 40.748855 46.799476 40.211783 46.426715 39.59375 46.09375 C 38.357683 45.427819 36.817169 44.889956 35.28125 44.4375 C 32.88776 43.732418 30.935373 43.333438 30 43.15625 L 30 32.0625 A 1.0001 1.0001 0 0 0 29.96875 31.875 L 45.78125 12.625 A 1.0001 1.0001 0 0 0 45 11 L 25.0625 11 C 24.552117 4.7943338 19.332781 -0.09375 13 -0.09375 z M 13 2.09375 C 18.139403 2.09375 22.337889 6.0000091 22.84375 11 L 18.46875 11 C 18.878371 10.656175 19.066578 10.269992 18.8125 9.78125 C 17.947199 8.1143469 14.887656 10.496276 13.8125 11.40625 L 13.78125 11.375 A 1.0001 1.0001 0 0 0 13.4375 11.09375 C 13.679871 9.5953237 14.140174 5.8389203 12.34375 6.03125 C 10.523409 6.2261403 11.771981 9.8806096 12.3125 11.25 A 1.0001 1.0001 0 0 0 12.0625 11.625 C 10.903993 11.003334 7.2581754 9.2056254 6.78125 11.0625 C 6.2499005 13.131271 11.599206 12.680754 12.21875 12.625 L 12.3125 12.75 C 11.941966 13.102197 8.1827976 16.727381 9.84375 17.875 C 11.356182 18.919133 12.612853 14.696288 12.9375 13.5 L 18.5 20.25 C 16.924638 21.303859 15.041936 21.90625 13 21.90625 C 7.519513 21.90625 3.09375 17.480487 3.09375 12 C 3.09375 6.519513 7.519513 2.09375 13 2.09375 z M 15.125 13 L 42.875 13 L 40.40625 16 L 17.59375 16 L 15.125 13 z M 19.25 18 L 38.75 18 L 29 29.875 L 19.25 18 z M 29 45.03125 C 29.150066 45.05748 31.867876 45.53518 34.71875 46.375 C 36.182831 46.806294 37.642317 47.328743 38.65625 47.875 C 38.73965 47.91993 38.766814 47.9549 38.84375 48 L 19.15625 48 C 19.23319 47.9549 19.260355 47.91993 19.34375 47.875 C 20.357683 47.328743 21.817169 46.806294 23.28125 46.375 C 26.132124 45.53518 28.849934 45.057478 29 45.03125 z" color="#000" overflow="visible" enable-background="accumulate" font-family="Bitstream Vera Sans"/>
</svg>