<svg xmlns="http://www.w3.org/2000/svg" width="36" height="39" viewBox="0 0 36 39">
    <g fill="#9DD745" fill-rule="nonzero">
        <path d="M32.26 8.333c3.91-2.09 3.731-4.663 3.657-5.15-.045-.927-1.084-1.647-3.171-2.201a.68.68 0 0 0-.833.468.664.664 0 0 0 .478.817c1.741.461 2.103.89 2.162.98-.108.192-.875.754-3.278 1.235-2.19.437-5.054.679-8.065.679-3.011 0-5.876-.242-8.066-.68-2.238-.447-3.057-.965-3.246-1.189-.01-.013-.017-.026-.026-.04l-.006-.008c.109-.192.876-.754 3.278-1.234 2.19-.438 5.055-.68 8.066-.68 2.668 0 5.283.196 7.36.55.37.063.721-.18.786-.542a.667.667 0 0 0-.553-.77C28.619.198 25.993 0 23.21 0c-3.261 0-6.334.274-8.652.771-2.73.586-4.058 1.395-4.058 2.475 0 .261.083.514.245.75.196.284.324.544.392.792.092.334.162.69.216 1.064-1.885-.638-3.876-.726-5.71-.233-2.22.595-3.953 1.964-4.88 3.854-.964 1.962-.94 4.217.065 6.35a.68.68 0 0 0 .901.325.66.66 0 0 0 .332-.883c-.833-1.766-.86-3.618-.075-5.214 1.522-3.1 5.716-4.28 9.485-2.733.009.353.005.716-.01 1.086a8.024 8.024 0 0 0-3.387-.774c-2.327 0-4.309 1.093-5.171 2.852-.63 1.284-.622 2.79.024 4.242.685 1.538 1.987 2.82 3.667 3.612a8.22 8.22 0 0 0 2.105.665l-.144.276c-.115.213-.224.43-.329.649a9.219 9.219 0 0 1-2.073-.692 8.905 8.905 0 0 1-3.05-2.338.689.689 0 0 0-.954-.097.656.656 0 0 0-.1.936 10.267 10.267 0 0 0 3.516 2.699c.687.324 1.4.57 2.126.739-.134.353-.258.71-.368 1.073a.664.664 0 0 0 .457.828.678.678 0 0 0 .845-.448c.29-.951.67-1.87 1.132-2.729 1.312-2.443 2.182-5.225 2.647-7.838.532.229 1.315.454 2.476.65a.676.676 0 0 0 .784-.543.667.667 0 0 0-.554-.769c-1.453-.245-2.11-.51-2.393-.667.793-.437 3.648-1.09 8.394-1.09.75 0 1.497.018 2.223.053a.673.673 0 0 0 .711-.632.67.67 0 0 0-.645-.697 48.084 48.084 0 0 0-2.29-.054c-.696 0-5.76.033-8.356.965.112-1.556.061-2.965-.14-4.093.541.197 1.189.377 1.943.538 2.319.498 5.392.771 8.652.771 3.261 0 6.334-.273 8.652-.77.893-.192 1.635-.408 2.23-.649-.4.622-1.135 1.373-2.48 2.092-.768.41-1.455 1.102-1.772 2.256-.71-.31-1.835-.6-3.606-.82a.676.676 0 0 0-.759.576.668.668 0 0 0 .588.744c2.062.256 3.055.605 3.446.818-.791.438-3.648 1.091-8.398 1.091-1.375 0-2.695-.057-3.923-.169a.676.676 0 0 0-.74.6.67.67 0 0 0 .614.725c1.27.116 2.632.175 4.05.175 2.507 0 4.872-.187 6.657-.528.817-.155 1.47-.332 1.97-.535.256 1.888 1.121 4.417 2.938 7.8 2.513 4.678 2.826 11.348-2.424 14.939-1.812 1.24-3.983 1.894-6.279 1.894H18.46c-1.127 0-2.236-.16-3.296-.478a.682.682 0 0 0-.848.443.663.663 0 0 0 .451.83c1.189.356 2.431.536 3.693.536h5.513c2.576 0 5.016-.738 7.057-2.134 5.925-4.053 5.63-11.472 2.848-16.65-3.132-5.831-3.721-9.82-1.617-10.944zM9.29 17.739a6.779 6.779 0 0 1-2.107-.602c-1.387-.654-2.456-1.7-3.01-2.945-.486-1.091-.502-2.204-.046-3.133.634-1.294 2.147-2.098 3.947-2.098a6.635 6.635 0 0 1 3.28.892c-.29 2.674-1.07 5.564-2.064 7.886z"/>
        <path d="M14.445 29.39c-.835-2.153-2.521-4.058-4.746-5.365-1.077-.632-2.51-.468-4.036.464-1.389.847-2.729 2.254-3.773 3.961C.846 30.157.212 31.978.104 33.578c-.12 1.758.408 3.074 1.485 3.706 1.883 1.106 3.924 1.64 5.833 1.64 2.8 0 5.319-1.148 6.648-3.321 1.1-1.797 1.232-4.003.375-6.212zm-4.617-1.747c-.009.137-.024.277-.042.418l-2.433 1.093 2.133-3.487c.276.464.398 1.147.342 1.976zm-2.73 3.09l2.3-1.034c-.208.626-.487 1.264-.832 1.896l-1.468-.862zm.77 2.004a12.047 12.047 0 0 1-1.274 1.572l-.179-2.426 1.453.854zm-1.487-7.119c.69-.42 1.336-.637 1.87-.637l.07.002-2.155 3.523-.193-2.618c.135-.096.271-.186.408-.27zM4.693 27l.179 2.425-1.453-.853c.395-.578.824-1.106 1.274-1.572zm-1.972 2.714l1.468.862-2.3 1.034c.208-.626.488-1.265.832-1.896zm-1.262 3.952c.009-.137.024-.277.043-.418l2.432-1.093-2.133 3.487c-.276-.465-.398-1.147-.342-1.976zm1.507 2.66l2.155-3.523.193 2.617a7.17 7.17 0 0 1-.408.27c-.72.44-1.392.655-1.94.636zm9.94-1.407c-1.47 2.4-4.772 3.24-8.074 2.31 1.59-.704 3.266-2.248 4.565-4.37 1.044-1.708 1.679-3.529 1.787-5.128.02-.306.02-.596.002-.874.884.892 1.566 1.914 1.99 3.007.706 1.82.61 3.615-.27 5.055z"/>
    </g>
</svg>
