<svg xmlns="http://www.w3.org/2000/svg" width="38" height="40" viewBox="0 0 38 40">
    <g fill="#9DD745" fill-rule="nonzero">
        <path d="M33.694 8.546c4.084-2.142 3.897-4.782 3.82-5.282-.048-.95-1.132-1.689-3.313-2.257a.713.713 0 0 0-.87.48.68.68 0 0 0 .5.838c1.818.473 2.196.912 2.258 1.006-.113.196-.915.773-3.424 1.265-2.287.45-5.279.697-8.424.697-3.145 0-6.136-.247-8.424-.697-2.337-.458-3.192-.99-3.39-1.22l-.028-.04-.006-.009c.114-.196.915-.773 3.424-1.265 2.288-.45 5.28-.697 8.424-.697 2.788 0 5.518.2 7.688.563a.707.707 0 0 0 .82-.555.685.685 0 0 0-.577-.79C29.892.202 27.149 0 24.242 0c-3.407 0-6.616.28-9.037.79-2.852.602-4.238 1.432-4.238 2.539 0 .268.086.527.256.77.204.291.338.557.41.812.095.342.168.708.224 1.09-1.969-.654-4.048-.743-5.964-.238-2.317.61-4.128 2.015-5.097 3.953-1.006 2.012-.982 4.325.069 6.512.12.25.376.397.644.397.1 0 .2-.02.297-.063a.672.672 0 0 0 .347-.906c-.87-1.81-.898-3.71-.079-5.348 1.59-3.178 5.97-4.39 9.907-2.803.01.362.005.735-.01 1.115a8.509 8.509 0 0 0-3.538-.794c-2.43 0-4.5 1.121-5.401 2.925-.658 1.316-.65 2.861.026 4.35.715 1.578 2.075 2.894 3.829 3.705a8.7 8.7 0 0 0 2.198.682c-.05.095-.1.191-.15.283-.12.219-.234.441-.343.666a9.752 9.752 0 0 1-2.165-.71c-1.246-.576-2.348-1.406-3.185-2.398a.729.729 0 0 0-.998-.1.665.665 0 0 0-.103.96c.968 1.148 2.238 2.105 3.67 2.769.72.332 1.463.585 2.222.758-.14.362-.27.729-.384 1.1a.679.679 0 0 0 .477.85c.067.019.136.028.203.028a.707.707 0 0 0 .68-.488c.301-.976.699-1.917 1.181-2.799 1.371-2.506 2.28-5.359 2.765-8.039.556.235 1.373.466 2.586.667a.703.703 0 0 0 .82-.557.686.686 0 0 0-.58-.789c-1.517-.25-2.203-.523-2.499-.684.829-.448 3.81-1.117 8.767-1.117.783 0 1.564.018 2.322.053a.698.698 0 0 0 .743-.648.693.693 0 0 0-.674-.715 51.14 51.14 0 0 0-2.391-.055c-.728 0-6.017.034-8.728.99.116-1.596.064-3.041-.147-4.198.566.202 1.242.386 2.03.552 2.422.51 5.631.79 9.037.79 3.406 0 6.615-.28 9.036-.79.933-.196 1.708-.417 2.33-.665-.419.638-1.186 1.408-2.592 2.146-.801.42-1.519 1.13-1.85 2.313-.742-.318-1.916-.615-3.766-.84a.704.704 0 0 0-.793.59.688.688 0 0 0 .615.763c2.153.263 3.19.62 3.598.84-.826.448-3.81 1.119-8.77 1.119-1.437 0-2.815-.059-4.098-.174a.702.702 0 0 0-.772.616.69.69 0 0 0 .64.743c1.327.12 2.75.18 4.23.18 2.62 0 5.089-.193 6.953-.542.853-.16 1.535-.34 2.057-.55.268 1.938 1.172 4.531 3.07 8.001 2.624 4.798 2.951 11.639-2.533 15.322-1.892 1.271-4.16 1.943-6.557 1.943H19.28a12.21 12.21 0 0 1-3.442-.49.715.715 0 0 0-.886.453.678.678 0 0 0 .472.852 13.68 13.68 0 0 0 3.856.55h5.759c2.69 0 5.238-.757 7.37-2.189 6.189-4.157 5.88-11.766 2.975-17.077-3.271-5.98-3.887-10.072-1.69-11.225zM9.703 18.194a7.18 7.18 0 0 1-2.201-.618c-1.448-.67-2.565-1.743-3.144-3.02-.507-1.12-.524-2.26-.048-3.213.663-1.328 2.243-2.152 4.123-2.152a7.036 7.036 0 0 1 3.425.915c-.303 2.742-1.117 5.706-2.155 8.088z"/>
        <path d="M15.087 30.144c-.872-2.208-2.633-4.163-4.957-5.503-1.125-.649-2.622-.48-4.215.476-1.45.869-2.85 2.312-3.94 4.063C.883 30.93.22 32.798.107 34.439c-.124 1.803.427 3.153 1.551 3.801 1.968 1.135 4.099 1.682 6.093 1.682 2.925 0 5.555-1.177 6.943-3.406 1.148-1.843 1.288-4.106.392-6.372zm-4.822-1.792a6.81 6.81 0 0 1-.044.428L7.68 29.902l2.227-3.577c.289.476.417 1.177.358 2.027zM7.414 31.52l2.403-1.06c-.219.641-.51 1.296-.87 1.944l-1.533-.884zm.804 2.055a12.402 12.402 0 0 1-1.331 1.613L6.7 32.7l1.518.875zm-1.553-7.3c.72-.433 1.395-.654 1.954-.654.024 0 .048 0 .071.002l-2.25 3.613-.202-2.685c.142-.098.284-.191.427-.277zm-1.763 1.416l.186 2.488-1.517-.875a12.39 12.39 0 0 1 1.33-1.613zm-2.06 2.783l1.533.885-2.403 1.06c.219-.641.51-1.296.87-1.945zM1.524 34.53c.01-.14.025-.284.044-.428l2.54-1.122-2.226 3.576c-.289-.476-.417-1.176-.358-2.026zm1.574 2.728l2.25-3.613.202 2.685a7.501 7.501 0 0 1-.426.276c-.751.45-1.453.672-2.026.652zm10.38-1.443c-1.533 2.463-4.982 3.324-8.43 2.37 1.66-.722 3.41-2.306 4.766-4.483 1.091-1.751 1.754-3.619 1.867-5.26.021-.312.021-.61.003-.895.922.915 1.634 1.962 2.077 3.083.738 1.867.637 3.708-.282 5.185z"/>
    </g>
</svg>
