<svg xmlns="http://www.w3.org/2000/svg" viewBox="0 0 50 50" width="50" height="50" style="fill: rgb(157, 215, 69);">
    <path style="line-height:normal;text-indent:0;text-align:start;text-decoration-line:none;text-decoration-style:solid;text-decoration-color:#000;text-transform:none;block-progression:tb;isolation:auto;mix-blend-mode:normal" d="M 2.9257812 3 L 5.875 44.203125 C 5.9808959 45.7677 7.2987109 47 8.8671875 47 L 23.132812 47 C 24.700781 47 26.019061 45.768331 26.125 44.203125 L 26.222656 42.830078 C 28.427514 44.791634 31.319846 46 34.5 46 C 41.391492 46 47 40.391492 47 33.5 C 47 28.327034 43.84036 23.878211 39.349609 21.980469 C 42.754292 20.404234 45.285617 17.139998 45.984375 13.216797 L 46.177734 12.130859 L 45.080078 12.044922 C 44.830699 12.025133 44.549756 12 44.238281 12 C 39.395662 12 35.280106 15.173568 33.615234 19.613281 L 32.986328 15.835938 A 1.0001 1.0001 0 0 0 32.017578 14.986328 A 1.0001 1.0001 0 0 0 31.013672 16.164062 L 31.867188 21.285156 C 30.335206 21.615457 28.906035 22.223328 27.638672 23.058594 L 29.074219 3 L 2.9257812 3 z M 5.0742188 5 L 26.925781 5 L 26.28125 14 L 5.71875 14 L 5.0742188 5 z M 43.566406 14.126953 C 42.38024 17.875218 39.269532 20.573642 35.433594 20.873047 C 36.61976 17.124782 39.730468 14.426358 43.566406 14.126953 z M 5.8613281 16 L 26.138672 16 L 25.507812 24.818359 L 24.363281 40.804688 L 24.128906 44.066406 L 24.128906 44.068359 C 24.092845 44.601106 23.666845 45 23.132812 45 L 8.8671875 45 C 8.3316641 45 7.9071978 44.601785 7.8710938 44.068359 L 7.8710938 44.066406 L 5.8613281 16 z M 34.5 23 C 40.310508 23 45 27.689492 45 33.5 C 45 39.310508 40.310508 44 34.5 44 C 31.223704 44 28.342234 42.477931 26.416016 40.130859 L 27.441406 25.808594 C 29.31104 24.09188 31.759609 23 34.5 23 z M 37 34 A 1 1 0 0 0 36 35 A 1 1 0 0 0 37 36 A 1 1 0 0 0 38 35 A 1 1 0 0 0 37 34 z M 41 34 A 1 1 0 0 0 40 35 A 1 1 0 0 0 41 36 A 1 1 0 0 0 42 35 A 1 1 0 0 0 41 34 z M 39 37 A 1 1 0 0 0 38 38 A 1 1 0 0 0 39 39 A 1 1 0 0 0 40 38 A 1 1 0 0 0 39 37 z" color="#000" font-weight="400" font-family="sans-serif" white-space="normal" overflow="visible"/>
</svg>