<svg xmlns="http://www.w3.org/2000/svg" viewBox="0 0 50 50" width="50" height="50" style="fill: rgb(157, 215, 69);">
    <path style="text-indent:0;text-align:start;line-height:normal;text-transform:none;block-progression:tb;-inkscape-font-specification:Sans" d="M 13 2 L 13 4 L 23.125 4 L 23.8125 8.0625 C 16.095376 8.671739 10 15.128715 10 23 A 1.0001 1.0001 0 0 0 11 24 L 12.125 24 L 15 47.125 A 1.0001 1.0001 0 0 0 16 48 L 34 48 A 1.0001 1.0001 0 0 0 35 47.125 L 37.875 24 L 39 24 A 1.0001 1.0001 0 0 0 40 23 C 40 15.022945 33.739297 8.4881633 25.875 8.03125 L 25 2.84375 A 1.0001 1.0001 0 0 0 24 2 L 13 2 z M 25 10 C 31.849155 10 37.389032 15.285836 37.90625 22 L 37.09375 22 L 12.8125 22 L 12.09375 22 C 12.610968 15.285836 18.150845 10 25 10 z M 14.125 24 L 35.875 24 L 35.375 28 L 31 28 A 1.0001 1.0001 0 0 0 30.90625 28 A 1.001098 1.001098 0 0 0 31 30 L 35.125 30 L 33.125 46 L 16.875 46 L 14.875 30 L 27 30 A 1.0001 1.0001 0 1 0 27 28 L 14.625 28 L 14.125 24 z" color="#000" overflow="visible" font-family="Sans"/>
</svg>