<svg xmlns="http://www.w3.org/2000/svg" width="23" height="39" viewBox="0 0 23 39">
    <g fill="#9DD745" fill-rule="nonzero">
        <path d="M14.761 22.662a.625.625 0 0 0-.207.669.647.647 0 0 0 1.253-.106c.067-.553-.605-.915-1.046-.563zM6.91 22.543a.662.662 0 0 0-.722.062.626.626 0 0 0-.186.728.646.646 0 0 0 1.22-.103.629.629 0 0 0-.312-.687zM9.603 23.98a.663.663 0 0 0-.766.008.625.625 0 0 0-.222.699.647.647 0 0 0 1.23-.03.626.626 0 0 0-.242-.676zM6.512 29.623a.628.628 0 0 0-.254.667.647.647 0 0 0 1.25-.015c.128-.55-.525-.974-.996-.652zM11.685 28.022a.626.626 0 0 0-.207.706.647.647 0 0 0 1.238-.104c.103-.56-.579-.948-1.031-.602zM7.911 31.787a.66.66 0 0 0-.741.038.626.626 0 0 0-.207.705.648.648 0 0 0 1.231-.074.628.628 0 0 0-.283-.669zM14.92 31.373a.626.626 0 0 0-.232.724.646.646 0 0 0 1.228-.058c.145-.557-.521-.997-.997-.666z"/>
        <path d="M20.872 12.198c.01-.08.015-.157.015-.232V8.014c0-1.081-.993-2.031-2.813-2.709l.71-2.717a1.961 1.961 0 0 0-.224-1.525A2.04 2.04 0 0 0 17.298.14a2.083 2.083 0 0 0-1.558.22 2.004 2.004 0 0 0-.944 1.233l-.74 2.841c-.825-.086-1.681-.13-2.555-.13-2.408 0-4.682.333-6.401.94-2.469.87-2.987 1.987-2.987 2.77v3.954c0 .074.005.151.016.231C.435 13.116.06 14.116.06 14.818v3.213c0 .348.287.63.643.63a.636.636 0 0 0 .643-.63v-1.085c.407.304.935.605 1.617.892a.653.653 0 0 0 .845-.329.624.624 0 0 0-.336-.826c-1.331-.56-2.126-1.258-2.126-1.864v-.003c.002-.478.486-1.006 1.345-1.484.44.482 1.184.974 2.407 1.406 1.63.574 3.757.903 6.025.936L9.95 20.175c-4.017.213-7.918 1.287-7.918 3.282v8.09c0 1.787 1.17 3.334 2.915 3.85l.05.015c1.81.529 4.12.82 6.503.82 2.384 0 4.693-.291 6.502-.82l.05-.014c1.744-.517 2.915-2.064 2.915-3.85v-3.2a.636.636 0 0 0-.643-.63.636.636 0 0 0-.643.63v3.2c0 1.228-.804 2.291-2.001 2.645l-.046.014c-1.693.494-3.871.766-6.134.766-2.263 0-4.441-.272-6.135-.766l-.046-.014c-1.197-.354-2.001-1.417-2.001-2.646v-6.32c.1.06.207.12.323.178.86.436 2.067.793 3.49 1.033a.64.64 0 0 0 .743-.513.63.63 0 0 0-.524-.728c-2.781-.468-4.032-1.3-4.032-1.74 0-.28.568-.776 1.816-1.202 1.184-.404 2.753-.682 4.482-.799l-.082.314a1.966 1.966 0 0 0 .369 1.732 2.06 2.06 0 0 0 1.625.778c.94 0 1.76-.623 1.993-1.515l.332-1.273c4.06.346 5.828 1.45 5.828 1.965 0 .701-2.888 2.065-8.182 2.065-.656 0-1.31-.022-1.944-.067a.638.638 0 0 0-.687.582.634.634 0 0 0 .595.673c.664.047 1.349.07 2.036.07 2.42 0 4.705-.29 6.432-.817.746-.228 1.316-.478 1.75-.736v1.024c0 .348.288.63.643.63a.636.636 0 0 0 .643-.63v-2.794c0-1.893-3.502-2.883-6.792-3.199l1.278-4.903c.894-.154 1.72-.361 2.448-.617 1.223-.432 1.967-.924 2.407-1.406.86.478 1.344 1.006 1.345 1.485v.002c0 .66-1.02 1.699-3.892 2.45a.628.628 0 0 0-.455.77.641.641 0 0 0 .787.446c1.542-.404 2.74-.925 3.56-1.536v17.615c0 .7-1.049 1.505-2.737 2.1-1.971.695-4.605 1.078-7.416 1.078-2.812 0-5.446-.383-7.417-1.078-1.688-.595-2.737-1.4-2.737-2.1V20.128a.636.636 0 0 0-.643-.629.636.636 0 0 0-.643.63v14.435C.06 37.445 5.955 39 11.5 39c5.545 0 11.439-1.555 11.439-4.436V14.82c0-.703-.375-1.703-2.068-2.62zm-1.27-4.185a.641.641 0 0 1-.106.33c-.527-.334-1.198-.631-1.985-.879l.243-.931c1.35.525 1.847 1.108 1.847 1.48zM18.433 9.19c-.42.218-.936.418-1.527.59l.286-1.095c.47.152.889.323 1.241.505zm-2.392-7.287a.752.752 0 0 1 .354-.462.78.78 0 0 1 1.057.264.735.735 0 0 1 .084.572l-.096.369a5.115 5.115 0 0 1-1.937 1.322l.538-2.065zm-.907 3.48a5.965 5.965 0 0 0 1.774-.696l-.295 1.129a5.117 5.117 0 0 1-1.937 1.322l.458-1.756zm-.827 3.17a5.967 5.967 0 0 0 1.774-.696l-.294 1.127a5.113 5.113 0 0 1-1.937 1.32l.457-1.752zM5.535 6.425c1.584-.558 3.702-.865 5.966-.865.763 0 1.511.035 2.233.104l-1.247 4.782c-.326.013-.656.02-.986.02-3.166 0-5.59-.587-6.93-1.278 1.339-.69 3.764-1.278 6.93-1.278a.636.636 0 0 0 .643-.629.636.636 0 0 0-.643-.629c-3.32 0-6.348.652-7.996 1.69a.64.64 0 0 1-.106-.33c0-.403.561-1.032 2.136-1.587zm7.21 14.23l-.47 1.798a.768.768 0 0 1-.747.568.772.772 0 0 1-.609-.292.738.738 0 0 1-.138-.65l.22-.847a5.965 5.965 0 0 0 1.774-.695l-.03.117zm.563-2.16a5.118 5.118 0 0 1-1.938 1.323l.458-1.756a5.963 5.963 0 0 0 1.774-.695l-.294 1.128zm-1.111-1.848l.258-.988a24.18 24.18 0 0 0 1.446-.097 5.052 5.052 0 0 1-1.704 1.085zm7.404-4.682c0 .404-.56 1.033-2.136 1.588-1.583.558-3.702.866-5.965.866-4.945 0-8.1-1.453-8.1-2.454V9.967c1.621 1.078 4.709 1.758 8.1 1.758.517 0 1.032-.015 1.532-.045a21.187 21.187 0 0 0 3.153-.419c1.444-.31 2.61-.753 3.416-1.292v1.997z"/>
    </g>
</svg>
