<svg xmlns="http://www.w3.org/2000/svg" width="29" height="40" viewBox="0 0 29 40">
    <g fill="#9DD745" fill-rule="nonzero">
        <path d="M8 28.46a.7.7 0 0 0-.751-.27.672.672 0 0 0-.501.622c-.015.571.712.891 1.148.503A.654.654 0 0 0 8 28.46zM20.306 27.818a.705.705 0 0 0-.784-.26.668.668 0 0 0-.469.645c.015.563.737.85 1.157.46a.654.654 0 0 0 .096-.845zM15.618 31.72c-.337-.495-1.156-.315-1.245.27-.09.592.65.989 1.12.6a.652.652 0 0 0 .125-.87z"/>
        <path d="M28.25 5.841v-.01c-.01-1.668-1.558-3.182-4.365-4.266C21.269.555 17.806 0 14.133 0c-2.416 0-4.795.246-6.88.713a.662.662 0 0 0-.512.794.685.685 0 0 0 .82.496c1.985-.444 4.258-.68 6.572-.68 3.503 0 6.786.523 9.245 1.472 2.226.86 3.503 1.97 3.503 3.05 0 1.08-1.277 2.192-3.503 3.05-2.458.95-5.742 1.472-9.245 1.472-3.503 0-6.786-.523-9.244-1.471-2.227-.86-3.504-1.971-3.504-3.05 0-1.08 1.277-2.192 3.504-3.051a.655.655 0 0 0 .382-.86.692.692 0 0 0-.889-.37C1.575 2.648.026 4.163.017 5.831v.014c0 .16.014.317.042.473l1.263 13.334c.003.13.015.26.037.388l1.443 15.222c.02 1.374 1.278 2.611 3.549 3.487C8.44 39.556 11.205 40 14.133 40c2.93 0 5.693-.444 7.783-1.25 2.27-.877 3.53-2.114 3.55-3.488l.481-5.09a.668.668 0 0 0-.619-.72.678.678 0 0 0-.743.599l-.485 5.118a.63.63 0 0 0-.003.06c0 .785-1.005 1.641-2.688 2.29-1.933.747-4.516 1.157-7.276 1.157s-5.343-.41-7.275-1.156c-1.684-.65-2.688-1.506-2.688-2.29 0-.021-.001-.041-.003-.061L2.946 22.28c.62.463 1.41.883 2.358 1.25 2.37.913 5.505 1.417 8.829 1.417 3.324 0 6.46-.504 8.83-1.418.947-.366 1.737-.786 2.358-1.248l-.53 5.598a.668.668 0 0 0 .681.722c.35 0 .648-.258.68-.602l.755-7.956c.023-.132.036-.265.038-.4l1.263-13.326a2.7 2.7 0 0 0 .042-.473v-.004zm-2.458 11.472c-.416-.382-.972-.767-1.709-1.138-1.677-.844-3.94-1.442-6.544-1.728a.68.68 0 0 0-.757.583.667.667 0 0 0 .603.732c4.652.511 8.164 2.153 8.191 3.824l-.025.266c-.382 1.833-4.964 3.772-11.418 3.772-6.459 0-11.042-1.942-11.418-3.776l-.025-.26c.018-1.083 1.549-2.199 3.963-2.969l-1.376 1.978a.644.644 0 0 0-.087.564c.06.19.207.345.398.42 2.262.883 4.581 1.332 6.831 1.332.518 0 1.032-.025 1.541-.073a.643.643 0 0 0 .084.39.685.685 0 0 0 .514.332c.77.09 1.506.13 2.205.13 3.011 0 5.344-.744 6.873-1.445a.662.662 0 0 0 .39-.546.655.655 0 0 0-.298-.599l-3.46-2.277a3.569 3.569 0 0 0-3.114-.39l-3.31-3.082a3.543 3.543 0 0 0-2.78-.921 3.489 3.489 0 0 0-2.517 1.467l-.716 1.029c-2.42.549-4.26 1.384-5.355 2.393L1.654 8.65c.7.548 1.615 1.046 2.728 1.475 2.616 1.01 6.079 1.566 9.751 1.566 3.673 0 7.136-.556 9.752-1.566 1.113-.43 2.028-.927 2.728-1.475l-.821 8.663zm-10.652.91l-.564 1.21c-2.495.368-5.074.104-7.682-.79l2.788-4.005a2.116 2.116 0 0 1 1.526-.89 2.15 2.15 0 0 1 1.687.56l3.047 2.835a3.366 3.366 0 0 0-.802 1.08zm1.248.544c.257-.55.749-.961 1.35-1.125a2.164 2.164 0 0 1 1.76.277l2.417 1.59c-1.549.548-3.659.99-6.257.823l.73-1.565z"/>
    </g>
</svg>
