<svg xmlns="http://www.w3.org/2000/svg" width="34" height="40" viewBox="0 0 34 40">
    <g fill="#9DD745" fill-rule="nonzero">
        <path d="M29.643 5.436c-.143-.523-1.07-1.4-3.212-2.153-2.293-.806-5.311-1.25-8.498-1.25-3.187 0-6.205.444-8.499 1.25-2.142.753-3.068 1.63-3.211 2.153a.622.622 0 0 0 0 .328c.143.522 1.07 1.4 3.212 2.152 2.293.806 5.31 1.25 8.498 1.25 1.27 0 2.52-.07 3.715-.208a.65.65 0 0 0 .585-.717.664.664 0 0 0-.744-.563c-1.143.132-2.34.199-3.556.199-2.656 0-5.175-.32-7.204-.905 2.03-.587 4.548-.906 7.204-.906 2.656 0 5.174.32 7.203.905-.329.095-.672.184-1.028.265a.644.644 0 0 0-.496.776.67.67 0 0 0 .804.48c.72-.165 1.398-.358 2.015-.575 2.143-.753 3.07-1.63 3.212-2.153a.623.623 0 0 0 0-.328zm-2.588.827c-.2-.082-.409-.161-.624-.237-2.294-.806-5.312-1.25-8.498-1.25-3.186 0-6.205.444-8.499 1.25a13.5 13.5 0 0 0-.623.237c-.55-.263-.887-.498-1.083-.664.301-.254.934-.672 2.164-1.105 2.15-.755 5.006-1.171 8.04-1.171 3.036 0 5.891.416 8.041 1.171 1.23.433 1.863.851 2.165 1.105-.196.166-.534.4-1.083.664zM7.559 30.805L5.99 15.21a.663.663 0 0 0-.73-.58.652.652 0 0 0-.6.704L6.226 30.93a.66.66 0 0 0 .73.58.651.651 0 0 0 .602-.705zM29.996 20.693a.663.663 0 0 0-.73.58l-1.162 11.554a.637.637 0 0 0-.003.062c0 .759-.982 1.594-2.626 2.234a.637.637 0 0 0-.37.839.67.67 0 0 0 .62.404.69.69 0 0 0 .25-.047c2.215-.862 3.443-2.067 3.463-3.397l1.159-11.525a.651.651 0 0 0-.601-.704z"/>
        <path d="M33.77 9.277s-2.128-4.567-2.308-4.913c-.577-1.112-1.938-2.104-3.972-2.869C24.927.531 21.533 0 17.933 0c-3.6 0-6.994.531-9.558 1.495-2.001.753-3.35 1.725-3.943 2.815-.197.364-2.337 4.967-2.337 4.967a.626.626 0 0 0-.071.29c0 1.815 1.736 3.468 4.89 4.653 2.953 1.112 6.867 1.724 11.019 1.724s8.065-.612 11.02-1.724c.376-.141.731-.29 1.066-.444l-.508 5.057a.651.651 0 0 0 .666.707.66.66 0 0 0 .665-.583l.598-5.949c1.565-1.001 2.402-2.182 2.402-3.442 0-.1-.024-.2-.071-.29zM8.862 2.697c2.413-.908 5.634-1.407 9.072-1.407 7.369 0 12.504 2.271 12.504 4.31 0 1.024-1.251 2.082-3.433 2.902-2.412.908-5.634 1.407-9.071 1.407-7.369 0-12.504-2.27-12.504-4.31 0-1.024 1.25-2.082 3.432-2.902zm19.606 10.322c-2.803 1.054-6.544 1.635-10.534 1.635-3.99 0-7.73-.58-10.534-1.635-2.468-.928-3.924-2.128-4.032-3.312L4.653 7.24c.674.947 1.939 1.793 3.722 2.464 2.564.964 5.958 1.495 9.558 1.495 3.6 0 6.994-.531 9.557-1.495 1.784-.671 3.049-1.516 3.722-2.464l1.286 2.467c-.107 1.184-1.563 2.384-4.031 3.312zM23.711 35.865l-6.311-.873a.665.665 0 0 0-.757.547.649.649 0 0 0 .567.73l6.311.872a.579.579 0 0 1 .38.218c.093.119.132.265.11.413a.55.55 0 0 1-.225.366.59.59 0 0 1-.429.106L10.62 36.482a.69.69 0 0 0-.415.072c-.949.5-2.62.66-4.36.419-1.343-.186-2.562-.58-3.433-1.11-.682-.416-1.074-.883-1.024-1.22.05-.337.563-.679 1.338-.893.99-.273 2.276-.32 3.619-.135 1.74.24 3.296.847 4.062 1.583a.678.678 0 0 0 .377.182l4.085.565a.665.665 0 0 0 .757-.547.649.649 0 0 0-.567-.73l-3.876-.536c-1.005-.862-2.72-1.527-4.649-1.793-1.525-.212-3.008-.15-4.175.171-1.346.371-2.16 1.062-2.294 1.946l-.001.004c-.38 2.553 2.017 5.004 5.342 5.464.37.051.736.076 1.096.076 2.025 0 3.855-.785 4.866-2.111l11.8 1.631a1.948 1.948 0 0 0 1.42-.35c.409-.295.674-.727.747-1.215.15-1.008-.579-1.946-1.624-2.09zM5.596 38.648c-1.133-.157-2.13-.588-2.873-1.177.86.362 1.867.631 2.932.778 1.064.147 2.1.16 3.02.05-.894.363-1.978.5-3.08.349z"/>
    </g>
</svg>
