<svg xmlns="http://www.w3.org/2000/svg" width="18" height="40" viewBox="0 0 18 40">
    <path fill="#9DD745" fill-rule="nonzero" d="M14.375 2.063C14 1.75 12.062 1.25 8.75 1.25c-3.313 0-5.25.5-5.625.813C3.062 2.374 1.25 8.375 1.25 12.5c0 4.125 3.375 7.5 7.5 7.5.375 0 .625.25.625.625s-.25.625-.625.625c-.438 0-.813 0-1.25-.063.375.563.625 1.188.625 1.938v8.125c0 1.875-.313 3.438-1 4.688-.25.437-.688 1.062-1.063 1.374a.604.604 0 0 1-.875 0c-.25-.25-.25-.562-.062-.812-2.063.313-3.063.75-3.25 1 .375.5 2.813 1.25 6.875 1.25 4 0 6.5-.75 6.875-1.25-.125-.125-.563-.438-2-.813-.313-.062-.563-.437-.5-.75.063-.312.438-.562.75-.5 2 .438 3 1.126 3 2 0 2-5.125 2.5-8.125 2.5s-8.125-.5-8.125-2.5c0-1.624 3.313-2.187 5.5-2.374.5-1 .75-2.313.75-3.876v-8.062c0-.938-.375-1.375-1.625-2.625C2.125 19.125 0 16.062 0 12.5 0 8.187 1.75 2.187 1.875 1.687 2.063 1.188 3 0 8.75 0s6.688 1.188 6.875 1.688c.125.5 1.875 6.437 1.875 10.812 0 3.5-2.063 6.625-5.25 8-1.25 1.25-1.625 1.688-1.625 2.625v8.125c0 2.313.563 4.063 1.688 5.188.124.124.187.25.187.437 0 .813-1.25 1.25-3.75 1.25-.375 0-.625-.25-.625-.625s.25-.625.625-.625c.938 0 1.688-.063 2.125-.188-1-1.312-1.5-3.124-1.5-5.437v-8.125c0-1.5.75-2.313 2.063-3.563.062-.062.124-.125.187-.125 2.813-1.187 4.625-3.875 4.625-6.937 0-4.125-1.75-10.125-1.875-10.438zM8.75 18.75c-3.438 0-6.25-2.813-6.25-6.25V10c0-1.75 4.813-1.875 6.25-1.875 1.125 0 2.25.063 3.188.188.312.062.562.374.5.687-.063.313-.376.563-.688.5a42.7 42.7 0 0 0-3-.125c-2.875 0-4.625.5-5 .75V12.5c0 2.75 2.25 5 5 5s5-2.25 5-5c0-3.625-.938-7.313-.938-7.375-.062-.313.126-.688.438-.75.313-.063.688.125.75.438.063.187 1 3.875 1 7.687 0 3.438-2.813 6.25-6.25 6.25zm0-6.875c-1.125 0-2.25-.063-3.188-.188-.312-.062-.562-.374-.5-.687.063-.313.375-.563.688-.5 1.813.25 4.25.25 6.063 0 .312-.063.687.188.687.5.063.313-.188.688-.5.688-1 .124-2.125.187-3.25.187zm-5.375-3.75a.732.732 0 0 1-.563-.688c.126-1.062.626-2.562.626-2.625.124-.312.437-.5.812-.375.313.125.5.438.375.813 0 0-.5 1.438-.625 2.375 0 .25-.25.563-.625.5zM8.75 3.75c-1.563 0-3.063-.063-4.125-.25-.313-.063-.563-.375-.5-.688.063-.312.375-.562.688-.5 1 .126 2.437.188 3.937.188s2.938-.063 4-.25c.313-.063.688.188.688.5.062.313-.188.688-.5.688-1.126.25-2.626.312-4.188.312z"/>
</svg>
