<svg xmlns="http://www.w3.org/2000/svg" width="44" height="57" viewBox="0 0 44 57">
    <g fill="#c5c5c5" fill-rule="evenodd">
        <path fill-rule="nonzero" d="M22 .727c-3.854 0-7 3.146-7 7s3.146 7 7 7 7-3.146 7-7-3.146-7-7-7zm0 2c2.773 0 5 2.226 5 5 0 2.773-2.227 5-5 5s-5-2.227-5-5c0-2.774 2.227-5 5-5z"/>
        <path d="M21 8.227v6h2v-6z"/>
        <path d="M20 6.727v2h4v-2zM37.414 12.727L36 14.14l6.586 6.586L44 19.312z"/>
        <path fill-rule="nonzero" d="M22 30.727c2.197 0 4 1.802 4 4 0 2.197-1.803 4-4 4s-4-1.803-4-4c0-2.198 1.803-4 4-4zm0 2c-1.116 0-2 .883-2 2 0 1.116.884 2 2 2s2-.884 2-2c0-1.117-.884-2-2-2z"/>
        <path d="M28.48 27.215a1 1 0 0 0-.687.305l-4 4a1 1 0 1 0 1.414 1.414l4-4a1 1 0 0 0-.727-1.72z"/>
        <g fill-rule="nonzero">
            <path d="M9.98 50.71c7.984 6.004 19.173 5.198 26.212-1.89 7.039-7.087 7.77-18.281 1.712-26.223S20.856 12.4 12.16 17.315C3.464 22.23-.272 32.808 3.408 42.095a1 1 0 1 1-1.86.736c-4.047-10.215.063-21.85 9.628-27.257 9.566-5.407 21.654-2.927 28.318 5.81 6.664 8.736 5.86 21.05-1.883 28.846-7.743 7.796-20.051 8.683-28.833 2.079A1 1 0 1 1 9.98 50.71z"/>
            <path d="M4.762 44.865a20 20 0 0 0 2.886 3.79 1 1 0 1 1-1.435 1.392 22 22 0 0 1-3.175-4.168 1 1 0 1 1 1.724-1.014z"/>
        </g>
        <path fill-rule="nonzero" d="M23.383 51.664a16.947 16.947 0 0 0 10.976-5.27 1 1 0 1 0-1.453-1.374 14.984 14.984 0 0 1-20 1.636 14.989 14.989 0 0 1-3.722-19.722 14.986 14.986 0 0 1 19.222-5.766 14.986 14.986 0 0 1 7.75 18.512 1 1 0 1 0 1.887.66c2.869-8.203-.924-17.268-8.781-20.98-7.857-3.713-17.274-.89-21.79 6.535-4.515 7.424-2.691 17.083 4.22 22.351a16.96 16.96 0 0 0 11.69 3.418z"/>
        <path fill-rule="nonzero" d="M34.687 42.98a1 1 0 1 1 2 0 1 1 0 0 1-2 0z"/>
    </g>
</svg>
